<svg width="108" height="108" viewBox="0 0 108 108" fill="none" xmlns="http://www.w3.org/2000/svg">
<g filter="url(#filter0_d_372_10971)">
<rect x="15.873" y="0.793701" width="76" height="76" rx="19" fill="white"/>
<rect x="16.2699" y="1.19053" width="75.2064" height="75.2064" rx="18.6032" stroke="#E8E8E8" stroke-opacity="0.3" stroke-width="0.793651"/>
<mask id="mask0_372_10971" style="mask-type:luminance" maskUnits="userSpaceOnUse" x="37" y="20" width="34" height="38">
<path d="M38.873 26.5071L53.8805 22.1271L68.873 26.5071V35.4887C68.8725 40.0917 67.4237 44.5778 64.7321 48.3117C62.0405 52.0457 58.2423 54.8382 53.8755 56.2937C49.5072 54.8388 45.7075 52.0461 43.0148 48.3112C40.3221 44.5764 38.8731 40.0889 38.873 35.4846V26.5071Z" fill="white" stroke="white" stroke-width="3.33333" stroke-linejoin="round"/>
<path d="M46.373 37.9604L52.2064 43.7937L62.2064 33.7937" stroke="black" stroke-width="3.33333" stroke-linecap="round" stroke-linejoin="round"/>
</mask>
<g mask="url(#mask0_372_10971)">
<path d="M33.873 18.7937H73.873V58.7937H33.873V18.7937Z" fill="#0024FF"/>
</g>
</g>
<defs>
<filter id="filter0_d_372_10971" x="3.05176e-05" y="5.05447e-05" width="107.746" height="107.746" filterUnits="userSpaceOnUse" color-interpolation-filters="sRGB">
<feFlood flood-opacity="0" result="BackgroundImageFix"/>
<feColorMatrix in="SourceAlpha" type="matrix" values="0 0 0 0 0 0 0 0 0 0 0 0 0 0 0 0 0 0 127 0" result="hardAlpha"/>
<feMorphology radius="11.9048" operator="erode" in="SourceAlpha" result="effect1_dropShadow_372_10971"/>
<feOffset dy="15.0794"/>
<feGaussianBlur stdDeviation="13.8889"/>
<feComposite in2="hardAlpha" operator="out"/>
<feColorMatrix type="matrix" values="0 0 0 0 0 0 0 0 0 0 0 0 0 0 0 0 0 0 0.12 0"/>
<feBlend mode="normal" in2="BackgroundImageFix" result="effect1_dropShadow_372_10971"/>
<feBlend mode="normal" in="SourceGraphic" in2="effect1_dropShadow_372_10971" result="shape"/>
</filter>
</defs>
</svg>
