<svg width="108" height="108" viewBox="0 0 108 108" fill="none" xmlns="http://www.w3.org/2000/svg">
<g filter="url(#filter0_d_372_10971)">
<rect x="15.873" y="0.793701" width="76" height="76" rx="19" fill="white"/>
<rect x="16.2699" y="1.19053" width="75.2064" height="75.2064" rx="18.6032" stroke="#E8E8E8" stroke-opacity="0.3" stroke-width="0.793651"/>
<g clip-path="url(#clip0_372_10971)">
<path d="M72.823 51.7437L67.823 43.1103C67.7819 43.0455 67.7253 42.9917 67.6585 42.954C67.5916 42.9162 67.5164 42.8955 67.4396 42.8937C67.3654 42.8962 67.2933 42.9194 67.2315 42.9606C67.1697 43.0018 67.1206 43.0594 67.0896 43.127C66.715 43.8518 66.2316 44.515 65.6563 45.0937C64.9039 45.8495 64.003 46.4411 63.0105 46.8312C62.0179 47.2214 60.9553 47.4015 59.8896 47.3603C59.7706 47.3611 59.6567 47.4091 59.573 47.4937C59.0805 47.9976 58.5194 48.4296 57.9063 48.777C57.8117 48.8327 57.7429 48.9234 57.7148 49.0295C57.6867 49.1356 57.7016 49.2485 57.7563 49.3437L62.6563 57.677C62.8175 57.9485 63.0525 58.1685 63.334 58.3116C63.6154 58.4547 63.9317 58.5149 64.246 58.4852C64.5604 58.4556 64.8598 58.3372 65.1095 58.144C65.3591 57.9507 65.5488 57.6905 65.6563 57.3937L67.0396 53.577L71.023 54.2437C71.3371 54.3014 71.6611 54.2677 71.9566 54.1466C72.2521 54.0254 72.5065 53.8219 72.6896 53.5603C72.8858 53.3031 73.0028 52.9944 73.0265 52.6718C73.0501 52.3493 72.9794 52.0268 72.823 51.7437ZM48.173 47.4937C48.1326 47.4514 48.0831 47.4188 48.0282 47.3986C47.9733 47.3784 47.9145 47.371 47.8563 47.377C46.7901 47.411 45.7282 47.2259 44.7363 46.8332C43.7444 46.4404 42.8436 45.8484 42.0896 45.0937C41.5144 44.515 41.031 43.8518 40.6563 43.127C40.6254 43.0594 40.5763 43.0018 40.5145 42.9606C40.4526 42.9194 40.3806 42.8962 40.3063 42.8937C40.2295 42.8955 40.1544 42.9162 40.0875 42.954C40.0206 42.9917 39.9641 43.0455 39.923 43.1103L34.923 51.7437C34.7723 52.0131 34.6994 52.319 34.7124 52.6274C34.7254 52.9358 34.8238 53.2346 34.9966 53.4903C35.1694 53.7461 35.4099 53.9488 35.6912 54.076C35.9724 54.2031 36.2835 54.2496 36.5896 54.2103L40.573 53.5437L41.9563 57.3603C42.0639 57.6572 42.2535 57.9174 42.5032 58.1106C42.7529 58.3039 43.0523 58.4222 43.3666 58.4519C43.6809 58.4816 43.9972 58.4214 44.2787 58.2783C44.5601 58.1352 44.7951 57.9151 44.9563 57.6437L49.8563 49.3103C49.9056 49.2295 49.9258 49.1342 49.9137 49.0403C49.9016 48.9464 49.8578 48.8594 49.7896 48.7937C49.1966 48.4323 48.6532 47.9953 48.173 47.4937ZM58.5563 44.627C59.4845 44.9314 60.4789 44.9725 61.4291 44.7458C62.3792 44.5191 63.2479 44.0334 63.9386 43.3426C64.6293 42.6519 65.115 41.7832 65.3418 40.8331C65.5685 39.8829 65.5274 38.8885 65.223 37.9603C66.083 37.515 66.8041 36.8419 67.3074 36.0144C67.8107 35.187 68.0769 34.2372 68.0769 33.2687C68.0769 32.3002 67.8107 31.3503 67.3074 30.5229C66.8041 29.6955 66.083 29.0223 65.223 28.577C65.5274 27.6488 65.5685 26.6544 65.3418 25.7043C65.115 24.7541 64.6293 23.8854 63.9386 23.1947C63.2479 22.504 62.3792 22.0183 61.4291 21.7916C60.4789 21.5648 59.4845 21.6059 58.5563 21.9103C58.1136 21.0497 57.4423 20.3277 56.6161 19.8236C55.7899 19.3195 54.8408 19.0529 53.873 19.0529C52.9052 19.0529 51.956 19.3195 51.1299 19.8236C50.3037 20.3277 49.6324 21.0497 49.1896 21.9103C48.2615 21.6059 47.2671 21.5648 46.3169 21.7916C45.3668 22.0183 44.4981 22.504 43.8074 23.1947C43.1166 23.8854 42.6309 24.7541 42.4042 25.7043C42.1775 26.6544 42.2186 27.6488 42.523 28.577C41.663 29.0223 40.9419 29.6955 40.4386 30.5229C39.9352 31.3503 39.669 32.3002 39.669 33.2687C39.669 34.2372 39.9352 35.187 40.4386 36.0144C40.9419 36.8419 41.663 37.515 42.523 37.9603C42.2186 38.8885 42.1775 39.8829 42.4042 40.8331C42.6309 41.7832 43.1166 42.6519 43.8074 43.3426C44.4981 44.0334 45.3668 44.5191 46.3169 44.7458C47.2671 44.9725 48.2615 44.9314 49.1896 44.627C49.6324 45.4876 50.3037 46.2096 51.1299 46.7137C51.956 47.2178 52.9052 47.4845 53.873 47.4845C54.8408 47.4845 55.7899 47.2178 56.6161 46.7137C57.4423 46.2096 58.1136 45.4876 58.5563 44.627ZM51.2896 31.8103C51.0295 31.9804 50.716 32.0488 50.4087 32.0027C50.1014 31.9566 49.8218 31.7992 49.623 31.5603C49.4493 31.3014 49.3786 30.9869 49.4249 30.6785C49.4711 30.3702 49.631 30.0902 49.873 29.8937L51.873 28.3937C52.1825 28.1615 52.5506 28.0202 52.9359 27.9854C53.3212 27.9507 53.7086 28.0239 54.0547 28.1969C54.4007 28.37 54.6918 28.6359 54.8952 28.9651C55.0986 29.2942 55.2063 29.6734 55.2063 30.0603V36.3103H55.5396C55.8442 36.3457 56.1251 36.4917 56.329 36.7206C56.5329 36.9496 56.6456 37.2454 56.6456 37.552C56.6456 37.8586 56.5329 38.1545 56.329 38.3834C56.1251 38.6123 55.8442 38.7583 55.5396 38.7937H52.2063C51.8748 38.7937 51.5569 38.662 51.3224 38.4276C51.088 38.1931 50.9563 37.8752 50.9563 37.5437C50.9563 37.2122 51.088 36.8942 51.3224 36.6598C51.5569 36.4254 51.8748 36.2937 52.2063 36.2937H52.623V30.8103L51.2896 31.8103Z" fill="#0024FF"/>
</g>
</g>
<defs>
<filter id="filter0_d_372_10971" x="3.05176e-05" y="5.05447e-05" width="107.746" height="107.746" filterUnits="userSpaceOnUse" color-interpolation-filters="sRGB">
<feFlood flood-opacity="0" result="BackgroundImageFix"/>
<feColorMatrix in="SourceAlpha" type="matrix" values="0 0 0 0 0 0 0 0 0 0 0 0 0 0 0 0 0 0 127 0" result="hardAlpha"/>
<feMorphology radius="11.9048" operator="erode" in="SourceAlpha" result="effect1_dropShadow_372_10971"/>
<feOffset dy="15.0794"/>
<feGaussianBlur stdDeviation="13.8889"/>
<feComposite in2="hardAlpha" operator="out"/>
<feColorMatrix type="matrix" values="0 0 0 0 0 0 0 0 0 0 0 0 0 0 0 0 0 0 0.12 0"/>
<feBlend mode="normal" in2="BackgroundImageFix" result="effect1_dropShadow_372_10971"/>
<feBlend mode="normal" in="SourceGraphic" in2="effect1_dropShadow_372_10971" result="shape"/>
</filter>
<clipPath id="clip0_372_10971">
<rect width="40" height="40" fill="white" transform="translate(33.873 18.7937)"/>
</clipPath>
</defs>
</svg>
