<svg width="108" height="108" viewBox="0 0 108 108" fill="none" xmlns="http://www.w3.org/2000/svg">
<g filter="url(#filter0_d_372_10980)">
<rect x="15.873" y="0.793701" width="76" height="76" rx="19" fill="#0024FF"/>
<rect x="16.2699" y="1.19053" width="75.2064" height="75.2064" rx="18.6032" stroke="#E8E8E8" stroke-opacity="0.3" stroke-width="0.793651"/>
<g clip-path="url(#clip0_372_10980)">
<path fill-rule="evenodd" clip-rule="evenodd" d="M63.376 19.5937C63.5253 19.3539 63.7423 19.1638 63.9997 19.0474C64.257 18.9309 64.543 18.8933 64.8217 18.9394L72.1674 20.1651C72.5409 20.2274 72.8744 20.4355 73.0946 20.7435C73.3148 21.0516 73.4037 21.4344 73.3417 21.808L72.1189 29.1566C72.0722 29.4351 71.944 29.6936 71.7505 29.8993C71.5569 30.1051 71.3068 30.2488 71.0316 30.3124C70.7564 30.376 70.4685 30.3566 70.2044 30.2567C69.9402 30.1567 69.7116 29.9807 69.5474 29.7509L67.5646 26.9794L57.3531 33.5051C56.9177 33.7838 56.3962 33.8956 55.8847 33.82C55.3733 33.7444 54.9065 33.4864 54.5703 33.0937L48.876 26.4366L38.2274 31.908C37.722 32.1679 37.134 32.2164 36.5928 32.0428C36.0517 31.8692 35.6016 31.4877 35.3417 30.9823C35.0818 30.4769 35.0333 29.8889 35.2069 29.3477C35.3805 28.8065 35.762 28.3565 36.2674 28.0966L48.4246 21.848C48.8538 21.6275 49.3448 21.5583 49.8183 21.6517C50.2917 21.745 50.7197 21.9954 51.0331 22.3623L56.616 28.8909L65.0731 23.4851L63.4246 21.1794C63.2607 20.9495 63.1686 20.6762 63.1599 20.3939C63.1513 20.1117 63.2265 19.8332 63.376 19.5937ZM44.6731 33.6223L36.3817 38.3651C36.0542 38.5522 35.7818 38.8225 35.5922 39.1486C35.4025 39.4747 35.3023 39.8451 35.3017 40.2223V56.6509C35.3017 57.8337 36.2617 58.7937 37.4446 58.7937H44.6731V33.6223ZM48.2446 58.7937H58.7246V39.3309L54.0131 41.6851L49.3046 33.4451C49.0662 33.0265 48.6938 32.7004 48.2474 32.5194L48.2446 58.7937ZM70.3017 58.7937H62.296V37.5451L69.3446 34.0194C69.6713 33.8563 70.0342 33.7794 70.399 33.796C70.7638 33.8126 71.1182 33.9221 71.4288 34.1141C71.7394 34.3062 71.9957 34.5744 72.1735 34.8934C72.3512 35.2123 72.4446 35.5714 72.4446 35.9366V56.6509C72.4446 57.2192 72.2188 57.7642 71.8169 58.1661C71.4151 58.5679 70.87 58.7937 70.3017 58.7937Z" fill="white"/>
</g>
</g>
<defs>
<filter id="filter0_d_372_10980" x="3.05176e-05" y="5.05447e-05" width="107.746" height="107.746" filterUnits="userSpaceOnUse" color-interpolation-filters="sRGB">
<feFlood flood-opacity="0" result="BackgroundImageFix"/>
<feColorMatrix in="SourceAlpha" type="matrix" values="0 0 0 0 0 0 0 0 0 0 0 0 0 0 0 0 0 0 127 0" result="hardAlpha"/>
<feMorphology radius="11.9048" operator="erode" in="SourceAlpha" result="effect1_dropShadow_372_10980"/>
<feOffset dy="15.0794"/>
<feGaussianBlur stdDeviation="13.8889"/>
<feComposite in2="hardAlpha" operator="out"/>
<feColorMatrix type="matrix" values="0 0 0 0 0 0 0 0 0 0 0 0 0 0 0 0 0 0 0.12 0"/>
<feBlend mode="normal" in2="BackgroundImageFix" result="effect1_dropShadow_372_10980"/>
<feBlend mode="normal" in="SourceGraphic" in2="effect1_dropShadow_372_10980" result="shape"/>
</filter>
<clipPath id="clip0_372_10980">
<rect width="40" height="40" fill="white" transform="translate(33.873 18.7937)"/>
</clipPath>
</defs>
</svg>
