<svg width="108" height="108" viewBox="0 0 108 108" fill="none" xmlns="http://www.w3.org/2000/svg">
<g filter="url(#filter0_d_372_11055)">
<rect x="15.873" y="0.793701" width="76" height="76" rx="19" fill="#0024FF"/>
<rect x="16.2699" y="1.19053" width="75.2064" height="75.2064" rx="18.6032" stroke="#E8E8E8" stroke-opacity="0.3" stroke-width="0.793651"/>
<path d="M47.4443 38.7937C48.2885 38.7937 49.1244 38.6274 49.9044 38.3043C50.6843 37.9813 51.393 37.5077 51.99 36.9108C52.5869 36.3138 53.0604 35.6052 53.3835 34.8252C53.7066 34.0453 53.8728 33.2093 53.8728 32.3651C53.8728 31.5209 53.7066 30.6849 53.3835 29.905C53.0604 29.125 52.5869 28.4164 51.99 27.8194C51.393 27.2225 50.6843 26.7489 49.9044 26.4259C49.1244 26.1028 48.2885 25.9365 47.4443 25.9365C45.7393 25.9365 44.1042 26.6138 42.8986 27.8194C41.693 29.025 41.0157 30.6601 41.0157 32.3651C41.0157 34.0701 41.693 35.7052 42.8986 36.9108C44.1042 38.1164 45.7393 38.7937 47.4443 38.7937ZM58.3014 49.678C59.3914 50.0137 60.75 50.2222 62.4443 50.2222C71.0157 50.2222 71.0157 44.8651 71.0157 44.8651C71.0157 44.0126 70.677 43.195 70.0742 42.5923C69.4715 41.9895 68.6539 41.6508 67.8014 41.6508H58.2928C59.1231 42.5147 59.5861 43.6669 59.5843 44.8651V45.658L59.58 45.7765C59.5498 46.2537 59.4762 46.7271 59.36 47.1908C59.1389 48.0693 58.7823 48.9079 58.3028 49.6765M67.4443 33.7937C67.4443 34.4503 67.3149 35.1005 67.0637 35.7071C66.8124 36.3137 66.4441 36.8649 65.9798 37.3292C65.5155 37.7935 64.9643 38.1618 64.3577 38.4131C63.7511 38.6643 63.1009 38.7937 62.4443 38.7937C61.7877 38.7937 61.1375 38.6643 60.5308 38.4131C59.9242 38.1618 59.373 37.7935 58.9087 37.3292C58.4444 36.8649 58.0761 36.3137 57.8249 35.7071C57.5736 35.1005 57.4443 34.4503 57.4443 33.7937C57.4443 32.4676 57.971 31.1958 58.9087 30.2581C59.8464 29.3205 61.1182 28.7937 62.4443 28.7937C63.7703 28.7937 65.0421 29.3205 65.9798 30.2581C66.9175 31.1958 67.4443 32.4676 67.4443 33.7937ZM36.73 44.8651C36.73 44.0126 37.0686 43.195 37.6714 42.5923C38.2742 41.9895 39.0918 41.6508 39.9443 41.6508H54.9443C55.7967 41.6508 56.6143 41.9895 57.2171 42.5923C57.8199 43.195 58.1586 44.0126 58.1586 44.8651V45.5794C58.1586 45.5794 58.1586 53.0794 47.4443 53.0794C36.73 53.0794 36.73 45.5794 36.73 45.5794V44.8651Z" fill="white"/>
</g>
<defs>
<filter id="filter0_d_372_11055" x="3.05176e-05" y="5.05447e-05" width="107.746" height="107.746" filterUnits="userSpaceOnUse" color-interpolation-filters="sRGB">
<feFlood flood-opacity="0" result="BackgroundImageFix"/>
<feColorMatrix in="SourceAlpha" type="matrix" values="0 0 0 0 0 0 0 0 0 0 0 0 0 0 0 0 0 0 127 0" result="hardAlpha"/>
<feMorphology radius="11.9048" operator="erode" in="SourceAlpha" result="effect1_dropShadow_372_11055"/>
<feOffset dy="15.0794"/>
<feGaussianBlur stdDeviation="13.8889"/>
<feComposite in2="hardAlpha" operator="out"/>
<feColorMatrix type="matrix" values="0 0 0 0 0 0 0 0 0 0 0 0 0 0 0 0 0 0 0.12 0"/>
<feBlend mode="normal" in2="BackgroundImageFix" result="effect1_dropShadow_372_11055"/>
<feBlend mode="normal" in="SourceGraphic" in2="effect1_dropShadow_372_11055" result="shape"/>
</filter>
</defs>
</svg>
