<svg width="108" height="108" viewBox="0 0 108 108" fill="none" xmlns="http://www.w3.org/2000/svg">
<g filter="url(#filter0_d_372_11065)">
<rect x="15.873" y="0.793701" width="76" height="76" rx="19" fill="#0024FF"/>
<rect x="16.2699" y="1.19053" width="75.2064" height="75.2064" rx="18.6032" stroke="#E8E8E8" stroke-opacity="0.3" stroke-width="0.793651"/>
<path d="M42.2062 32.127C43.9743 32.127 45.67 32.8294 46.9203 34.0796C48.1705 35.3299 48.8729 37.0255 48.8729 38.7937C48.8729 40.5618 48.1705 42.2575 46.9203 43.5077C45.67 44.7579 43.9743 45.4603 42.2062 45.4603C40.4381 45.4603 38.7424 44.7579 37.4922 43.5077C36.2419 42.2575 35.5396 40.5618 35.5396 38.7937C35.5396 37.0255 36.2419 35.3299 37.4922 34.0796C38.7424 32.8294 40.4381 32.127 42.2062 32.127ZM53.8729 20.4603C55.641 20.4603 57.3367 21.1627 58.5869 22.4129C59.8372 23.6632 60.5395 25.3589 60.5395 27.127C60.5395 28.8951 59.8372 30.5908 58.5869 31.841C57.3367 33.0913 55.641 33.7937 53.8729 33.7937C52.1048 33.7937 50.4091 33.0913 49.1588 31.841C47.9086 30.5908 47.2062 28.8951 47.2062 27.127C47.2062 25.3589 47.9086 23.6632 49.1588 22.4129C50.4091 21.1627 52.1048 20.4603 53.8729 20.4603ZM53.8729 43.7937C55.641 43.7937 57.3367 44.496 58.5869 45.7463C59.8372 46.9965 60.5395 48.6922 60.5395 50.4603C60.5395 52.2284 59.8372 53.9241 58.5869 55.1744C57.3367 56.4246 55.641 57.127 53.8729 57.127C52.1048 57.127 50.4091 56.4246 49.1588 55.1744C47.9086 53.9241 47.2062 52.2284 47.2062 50.4603C47.2062 48.6922 47.9086 46.9965 49.1588 45.7463C50.4091 44.496 52.1048 43.7937 53.8729 43.7937ZM65.5395 32.127C67.3077 32.127 69.0033 32.8294 70.2536 34.0796C71.5038 35.3299 72.2062 37.0255 72.2062 38.7937C72.2062 40.5618 71.5038 42.2575 70.2536 43.5077C69.0033 44.7579 67.3077 45.4603 65.5395 45.4603C63.7714 45.4603 62.0757 44.7579 60.8255 43.5077C59.5753 42.2575 58.8729 40.5618 58.8729 38.7937C58.8729 37.0255 59.5753 35.3299 60.8255 34.0796C62.0757 32.8294 63.7714 32.127 65.5395 32.127ZM53.8729 23.7937C52.9888 23.7937 52.141 24.1448 51.5159 24.77C50.8907 25.3951 50.5395 26.2429 50.5395 27.127C50.5395 28.011 50.8907 28.8589 51.5159 29.484C52.141 30.1091 52.9888 30.4603 53.8729 30.4603C54.7569 30.4603 55.6048 30.1091 56.2299 29.484C56.855 28.8589 57.2062 28.011 57.2062 27.127C57.2062 26.2429 56.855 25.3951 56.2299 24.77C55.6048 24.1448 54.7569 23.7937 53.8729 23.7937ZM42.2062 35.4603C41.3222 35.4603 40.4743 35.8115 39.8492 36.4366C39.2241 37.0618 38.8729 37.9096 38.8729 38.7937C38.8729 39.6777 39.2241 40.5256 39.8492 41.1507C40.4743 41.7758 41.3222 42.127 42.2062 42.127C43.0903 42.127 43.9381 41.7758 44.5632 41.1507C45.1884 40.5256 45.5395 39.6777 45.5395 38.7937C45.5395 37.9096 45.1884 37.0618 44.5632 36.4366C43.9381 35.8115 43.0903 35.4603 42.2062 35.4603ZM53.8729 47.127C52.9888 47.127 52.141 47.4782 51.5159 48.1033C50.8907 48.7284 50.5395 49.5763 50.5395 50.4603C50.5395 51.3444 50.8907 52.1922 51.5159 52.8173C52.141 53.4425 52.9888 53.7937 53.8729 53.7937C54.7569 53.7937 55.6048 53.4425 56.2299 52.8173C56.855 52.1922 57.2062 51.3444 57.2062 50.4603C57.2062 49.5763 56.855 48.7284 56.2299 48.1033C55.6048 47.4782 54.7569 47.127 53.8729 47.127Z" fill="white"/>
</g>
<defs>
<filter id="filter0_d_372_11065" x="3.05176e-05" y="5.05447e-05" width="107.746" height="107.746" filterUnits="userSpaceOnUse" color-interpolation-filters="sRGB">
<feFlood flood-opacity="0" result="BackgroundImageFix"/>
<feColorMatrix in="SourceAlpha" type="matrix" values="0 0 0 0 0 0 0 0 0 0 0 0 0 0 0 0 0 0 127 0" result="hardAlpha"/>
<feMorphology radius="11.9048" operator="erode" in="SourceAlpha" result="effect1_dropShadow_372_11065"/>
<feOffset dy="15.0794"/>
<feGaussianBlur stdDeviation="13.8889"/>
<feComposite in2="hardAlpha" operator="out"/>
<feColorMatrix type="matrix" values="0 0 0 0 0 0 0 0 0 0 0 0 0 0 0 0 0 0 0.12 0"/>
<feBlend mode="normal" in2="BackgroundImageFix" result="effect1_dropShadow_372_11065"/>
<feBlend mode="normal" in="SourceGraphic" in2="effect1_dropShadow_372_11065" result="shape"/>
</filter>
</defs>
</svg>
