<svg width="108" height="108" viewBox="0 0 108 108" fill="none" xmlns="http://www.w3.org/2000/svg">
<g filter="url(#filter0_d_773_39421)">
<rect x="15.873" y="0.793701" width="76" height="76" rx="19" fill="#0024FF"/>
<rect x="16.2699" y="1.19053" width="75.2064" height="75.2064" rx="18.6032" stroke="#E8E8E8" stroke-opacity="0.3" stroke-width="0.793651"/>
<path d="M52.5547 25.1537C52.4733 24.7192 52.2227 24.3348 51.858 24.0851C51.4932 23.8353 51.0442 23.7407 50.6097 23.822C50.1752 23.9034 49.7908 24.154 49.541 24.5187C49.2913 24.8835 49.1967 25.3325 49.278 25.767L49.8197 28.667C48.1079 29.5477 46.7277 30.9597 45.8863 32.6912C45.0449 34.4227 44.7876 36.3803 45.153 38.2704L45.613 40.7254L45.7047 41.2187C46.1347 43.5087 45.3247 44.9887 44.6547 46.2154C44.1797 47.082 43.7763 47.822 43.9263 48.6304C44.1097 49.607 44.293 50.5854 45.1763 50.4204L66.343 46.4587C67.223 46.292 67.0397 45.317 66.8563 44.342C66.6847 43.402 65.7963 42.4704 64.8647 41.4904C63.8547 40.4304 62.793 39.3137 62.5247 38.072C62.1363 36.2637 62.0663 35.7604 62.0197 35.427C62.0047 35.322 61.993 35.232 61.973 35.1237C61.5973 33.0432 60.4932 31.1644 58.8584 29.8238C57.2237 28.4832 55.1651 27.7682 53.0513 27.807L52.5547 25.1537Z" fill="white"/>
<path fill-rule="evenodd" clip-rule="evenodd" d="M44.7713 25.9237C45.0987 26.2203 45.2949 26.6349 45.3168 27.0762C45.3387 27.5175 45.1845 27.9494 44.888 28.277C43.0297 30.327 42.0463 32.6187 41.838 35.377C41.8048 35.8179 41.5979 36.2276 41.2627 36.5159C40.9275 36.8043 40.4914 36.9476 40.0505 36.9145C39.6096 36.8813 39.1999 36.6744 38.9115 36.3392C38.6232 36.0039 38.4798 35.5679 38.513 35.127C38.7797 31.6287 40.0613 28.6387 42.4163 26.0387C42.5634 25.8764 42.7409 25.7447 42.9389 25.6511C43.1368 25.5575 43.3513 25.5039 43.57 25.4932C43.7887 25.4825 44.0074 25.515 44.2135 25.5889C44.4196 25.6628 44.6092 25.7765 44.7713 25.9237Z" fill="white"/>
<path d="M48.7896 51.6271C49.9562 52.9604 51.6229 53.7937 53.4562 53.7937C56.1229 53.7937 58.2896 51.9604 58.9562 49.6271L48.7896 51.6271Z" fill="white"/>
</g>
<defs>
<filter id="filter0_d_773_39421" x="3.05176e-05" y="5.05447e-05" width="107.746" height="107.746" filterUnits="userSpaceOnUse" color-interpolation-filters="sRGB">
<feFlood flood-opacity="0" result="BackgroundImageFix"/>
<feColorMatrix in="SourceAlpha" type="matrix" values="0 0 0 0 0 0 0 0 0 0 0 0 0 0 0 0 0 0 127 0" result="hardAlpha"/>
<feMorphology radius="11.9048" operator="erode" in="SourceAlpha" result="effect1_dropShadow_773_39421"/>
<feOffset dy="15.0794"/>
<feGaussianBlur stdDeviation="13.8889"/>
<feComposite in2="hardAlpha" operator="out"/>
<feColorMatrix type="matrix" values="0 0 0 0 0 0 0 0 0 0 0 0 0 0 0 0 0 0 0.12 0"/>
<feBlend mode="normal" in2="BackgroundImageFix" result="effect1_dropShadow_773_39421"/>
<feBlend mode="normal" in="SourceGraphic" in2="effect1_dropShadow_773_39421" result="shape"/>
</filter>
</defs>
</svg>
