<svg width="108" height="108" viewBox="0 0 108 108" fill="none" xmlns="http://www.w3.org/2000/svg">
<g filter="url(#filter0_d_773_39431)">
<rect x="15.873" y="0.793701" width="76" height="76" rx="19" fill="#0024FF"/>
<rect x="16.2699" y="1.19053" width="75.2064" height="75.2064" rx="18.6032" stroke="#E8E8E8" stroke-opacity="0.3" stroke-width="0.793651"/>
<path d="M53.7899 48.7938C54.3732 48.7938 54.8665 48.5921 55.2699 48.1887C55.6732 47.7854 55.8743 47.2926 55.8732 46.7104C55.8721 46.1282 55.671 45.6349 55.2699 45.2304C54.8688 44.826 54.3754 44.6249 53.7899 44.6271C53.2043 44.6293 52.7115 44.831 52.3115 45.2321C51.9115 45.6332 51.7099 46.126 51.7065 46.7104C51.7032 47.2949 51.9049 47.7882 52.3115 48.1904C52.7182 48.5926 53.211 48.7938 53.7899 48.7938ZM52.2899 42.3771H55.3732C55.3732 41.4604 55.4777 40.7382 55.6865 40.2104C55.8954 39.6826 56.4854 38.9604 57.4565 38.0437C58.1788 37.3215 58.7482 36.6337 59.1649 35.9804C59.5815 35.3271 59.7899 34.5426 59.7899 33.6271C59.7899 32.0715 59.2204 30.8771 58.0815 30.0438C56.9427 29.2104 55.5954 28.7938 54.0399 28.7938C52.4565 28.7938 51.1721 29.2104 50.1865 30.0438C49.201 30.8771 48.5132 31.8771 48.1232 33.0438L50.8732 34.1271C51.0121 33.6271 51.3249 33.0854 51.8115 32.5021C52.2982 31.9188 53.041 31.6271 54.0399 31.6271C54.9288 31.6271 55.5954 31.8704 56.0399 32.3571C56.4843 32.8438 56.7065 33.3782 56.7065 33.9604C56.7065 34.516 56.5399 35.0371 56.2065 35.5237C55.8732 36.0104 55.4565 36.4615 54.9565 36.8771C53.7343 37.9604 52.9843 38.7799 52.7065 39.3354C52.4288 39.891 52.2899 40.9049 52.2899 42.3771ZM53.8732 55.4604C51.5677 55.4604 49.401 55.0232 47.3732 54.1488C45.3454 53.2743 43.5815 52.0865 42.0815 50.5854C40.5815 49.0843 39.3943 47.3204 38.5199 45.2937C37.6454 43.2671 37.2077 41.1004 37.2065 38.7937C37.2054 36.4871 37.6432 34.3204 38.5199 32.2938C39.3965 30.2671 40.5838 28.5032 42.0815 27.0021C43.5793 25.501 45.3432 24.3138 47.3732 23.4404C49.4032 22.5671 51.5699 22.1293 53.8732 22.1271C56.1765 22.1249 58.3432 22.5626 60.3732 23.4404C62.4032 24.3182 64.1671 25.5054 65.6649 27.0021C67.1627 28.4988 68.3504 30.2626 69.2282 32.2938C70.106 34.3249 70.5432 36.4915 70.5399 38.7937C70.5365 41.096 70.0988 43.2626 69.2265 45.2937C68.3543 47.3249 67.1671 49.0888 65.6649 50.5854C64.1627 52.0821 62.3988 53.2699 60.3732 54.1488C58.3477 55.0276 56.181 55.4649 53.8732 55.4604Z" fill="white"/>
</g>
<defs>
<filter id="filter0_d_773_39431" x="3.05176e-05" y="5.05447e-05" width="107.746" height="107.746" filterUnits="userSpaceOnUse" color-interpolation-filters="sRGB">
<feFlood flood-opacity="0" result="BackgroundImageFix"/>
<feColorMatrix in="SourceAlpha" type="matrix" values="0 0 0 0 0 0 0 0 0 0 0 0 0 0 0 0 0 0 127 0" result="hardAlpha"/>
<feMorphology radius="11.9048" operator="erode" in="SourceAlpha" result="effect1_dropShadow_773_39431"/>
<feOffset dy="15.0794"/>
<feGaussianBlur stdDeviation="13.8889"/>
<feComposite in2="hardAlpha" operator="out"/>
<feColorMatrix type="matrix" values="0 0 0 0 0 0 0 0 0 0 0 0 0 0 0 0 0 0 0.12 0"/>
<feBlend mode="normal" in2="BackgroundImageFix" result="effect1_dropShadow_773_39431"/>
<feBlend mode="normal" in="SourceGraphic" in2="effect1_dropShadow_773_39431" result="shape"/>
</filter>
</defs>
</svg>
