<svg width="32" height="32" viewBox="0 0 32 32" fill="none" xmlns="http://www.w3.org/2000/svg">
<path opacity="0.4" d="M21.5871 11.8133C21.0671 11.8133 20.6538 11.4 20.6538 10.88V9.17333C20.6538 7.86667 20.0938 6.61333 19.1338 5.73333C18.1471 4.84 16.8805 4.42667 15.5471 4.54667C13.3071 4.76 11.3471 7.04 11.3471 9.41333V10.6133C11.3471 11.1333 10.9338 11.5467 10.4138 11.5467C9.8938 11.5467 9.48047 11.1333 9.48047 10.6133V9.41333C9.48047 6.08 12.1738 3 15.3605 2.69333C17.2138 2.52 19.0005 3.10667 20.3738 4.36C21.7338 5.58667 22.5071 7.34667 22.5071 9.17333V10.88C22.5071 11.4 22.0938 11.8133 21.5871 11.8133Z" fill="#0024FF"/>
<path d="M26.6136 11.9467C25.4936 10.7067 23.6536 10.1067 20.9603 10.1067H11.0403C8.34698 10.1067 6.50698 10.7067 5.38698 11.9467C4.09365 13.3867 4.13365 15.3067 4.28031 16.64L5.21365 24.0667C5.49365 26.6667 6.54698 29.3333 12.2803 29.3333H19.7203C25.4536 29.3333 26.507 26.6667 26.787 24.08L27.7203 16.6267C27.867 15.3067 27.8936 13.3867 26.6136 11.9467ZM11.227 17.5333H11.2136C10.4803 17.5333 9.88031 16.9333 9.88031 16.2C9.88031 15.4667 10.4803 14.8667 11.2136 14.8667C11.9603 14.8667 12.5603 15.4667 12.5603 16.2C12.5603 16.9333 11.9603 17.5333 11.227 17.5333ZM20.5603 17.5333H20.547C19.8136 17.5333 19.2136 16.9333 19.2136 16.2C19.2136 15.4667 19.8136 14.8667 20.547 14.8667C21.2936 14.8667 21.8936 15.4667 21.8936 16.2C21.8936 16.9333 21.2936 17.5333 20.5603 17.5333Z" fill="#0024FF"/>
</svg>
