<svg width="8" height="8" viewBox="0 0 8 8" fill="none" xmlns="http://www.w3.org/2000/svg">
<path d="M6.02147 0.402429L6.06754 0.495172L6.41729 1.42442C6.44457 1.49716 6.50215 1.55535 6.5755 1.58263L7.47261 1.91904C7.86661 2.06695 8.07816 2.48762 7.97329 2.88587L7.94783 2.96467L7.5308 3.88786C7.5149 3.9231 7.50668 3.96133 7.50668 4C7.50668 4.03866 7.5149 4.07689 7.5308 4.11214L7.92662 4.9844C8.00979 5.16737 8.02217 5.37467 7.96138 5.56623C7.90058 5.7578 7.77093 5.92002 7.59748 6.02154L7.50473 6.06761L6.5755 6.41737C6.53944 6.43105 6.5067 6.45223 6.47943 6.4795C6.45216 6.50677 6.43098 6.53952 6.41729 6.57557L6.08088 7.47269C6.01031 7.66104 5.87238 7.81652 5.69378 7.90901C5.51517 8.0015 5.30861 8.02444 5.11406 7.97338L5.03526 7.94792L4.11209 7.53088C4.07684 7.51499 4.03862 7.50677 3.99995 7.50677C3.96128 7.50677 3.92306 7.51499 3.88781 7.53088L3.01556 7.92731C2.83252 8.01043 2.62517 8.02273 2.4336 7.96182C2.24203 7.90091 2.07985 7.77112 1.97843 7.59756L1.93236 7.50482L1.58261 6.57557C1.56892 6.53952 1.54774 6.50677 1.52047 6.4795C1.4932 6.45223 1.46046 6.43105 1.4244 6.41737L0.527292 6.08095C0.338944 6.01038 0.183474 5.87245 0.0909806 5.69384C-0.0015125 5.51524 -0.0244499 5.30867 0.026609 5.11412L0.0520674 5.03532L0.469708 4.11214C0.485604 4.07689 0.493825 4.03866 0.493825 4C0.493825 3.96133 0.485604 3.9231 0.469708 3.88786L0.0732828 3.01559C-0.00988688 2.83263 -0.0222717 2.62532 0.0385223 2.43376C0.0993164 2.24219 0.228972 2.07997 0.402425 1.97845L0.495166 1.93238L1.4244 1.58263C1.46046 1.56894 1.4932 1.54776 1.52047 1.52049C1.54774 1.49322 1.56892 1.46047 1.58261 1.42442L1.91902 0.527298C1.98958 0.338948 2.12752 0.183476 2.30612 0.0909817C2.48473 -0.00151251 2.69129 -0.0244502 2.88584 0.0266093L2.96464 0.052068L3.88781 0.469713C3.92306 0.485609 3.96128 0.49383 3.99995 0.49383C4.03862 0.49383 4.07684 0.485609 4.11209 0.469713L4.98434 0.0732836C5.16731 -0.009887 5.37461 -0.022272 5.56617 0.0385228C5.75773 0.0993175 5.91995 0.228975 6.02147 0.402429ZM5.31167 2.60886L3.38046 4.8171L2.67611 4.11153C2.65116 4.08546 2.62126 4.06463 2.58815 4.05027C2.55505 4.03592 2.51941 4.02831 2.48333 4.02792C2.44725 4.02752 2.41145 4.03433 2.37804 4.04796C2.34462 4.06158 2.31427 4.08175 2.28875 4.10726C2.26324 4.13278 2.24307 4.16313 2.22945 4.19655C2.21582 4.22996 2.20901 4.26576 2.20941 4.30184C2.20981 4.33792 2.21741 4.37356 2.23176 4.40667C2.24612 4.43977 2.26695 4.46968 2.29302 4.49462L3.20225 5.40386C3.22849 5.43004 3.25982 5.45056 3.29431 5.46414C3.3288 5.47773 3.3657 5.48409 3.40275 5.48284C3.43979 5.48159 3.47618 5.47275 3.50968 5.45687C3.54317 5.441 3.57305 5.41842 3.59746 5.39053L5.719 2.96588C5.7622 2.91135 5.78277 2.84229 5.77645 2.77301C5.77012 2.70373 5.7374 2.63953 5.68504 2.59372C5.63268 2.54791 5.56471 2.52399 5.49521 2.52692C5.4257 2.52985 5.35998 2.5588 5.31167 2.60886Z" fill="#0024FF"/>
</svg>
