<svg width="32" height="32" viewBox="0 0 32 32" fill="none" xmlns="http://www.w3.org/2000/svg">
<rect x="0.5" y="0.5" width="31" height="31" rx="3.5" fill="white"/>
<rect x="0.5" y="0.5" width="31" height="31" rx="3.5" stroke="#D9D9D9"/>
<path fill-rule="evenodd" clip-rule="evenodd" d="M10.1198 21.1441H8.18119L6.72749 13.0563C6.65849 12.6843 6.51199 12.3554 6.29648 12.2003C5.75867 11.8108 5.16604 11.5007 4.51953 11.3444V11.033H7.64243C8.07344 11.033 8.39669 11.5007 8.45057 12.044L9.20483 17.878L11.1425 11.033H13.0272L10.1198 21.1441ZM14.1047 21.1441H12.2739L13.7814 11.033H15.6123L14.1047 21.1441ZM17.9809 13.8341C18.0348 13.2895 18.358 12.9781 18.7352 12.9781C19.3278 12.8999 19.9734 13.0563 20.5121 13.4445L20.8354 11.2676C20.2966 10.9562 19.704 10.7998 19.1662 10.7998C17.3892 10.7998 16.0962 12.2003 16.0962 14.1441C16.0962 15.6228 17.0121 16.3993 17.6586 16.867C18.358 17.3334 18.6274 17.6448 18.5735 18.1112C18.5735 18.8108 18.0348 19.1222 17.497 19.1222C16.8505 19.1222 16.2039 18.889 15.6123 18.4994L15.289 20.6777C15.9355 21.066 16.635 21.2223 17.2815 21.2223C19.2739 21.2992 20.5121 19.9 20.5121 17.7998C20.5121 15.1551 17.9809 15.0001 17.9809 13.8341V13.8341ZM26.9195 21.1441L25.4658 11.033H23.9044C23.5811 11.033 23.2579 11.3444 23.1501 11.8108L20.4582 21.1441H22.3429L22.7191 19.6668H25.0348L25.2503 21.1441H26.9195ZM24.1738 13.7559L24.7116 17.5666H23.204L24.1738 13.7559Z" fill="#172B85"/>
</svg>
