<svg width="69" height="69" viewBox="0 0 69 69" fill="none" xmlns="http://www.w3.org/2000/svg">
<rect x="0.98336" y="0.98336" width="66.8685" height="66.8685" rx="33.4342" fill="#0024FF"/>
<rect x="0.98336" y="0.98336" width="66.8685" height="66.8685" rx="33.4342" stroke="white" stroke-width="1.96672"/>
<path opacity="0.4" d="M44.7921 24.0431L25.551 43.2841C24.8299 44.0053 23.6171 43.9069 23.027 43.0547C20.9948 40.0882 19.7983 36.5809 19.7983 32.9752V25.7803C19.7983 24.4364 20.8145 22.9122 22.0601 22.4041L31.1889 18.6674C33.254 17.8151 35.5485 17.8151 37.6136 18.6674L44.2348 21.3716C45.3329 21.8141 45.6115 23.2236 44.7921 24.0431Z" fill="white"/>
<path d="M46.3328 26.2884C47.3981 25.387 49.0207 26.1573 49.0207 27.5504V32.9752C49.0207 40.9896 43.2025 48.4959 35.2536 50.6921C34.7128 50.8396 34.1228 50.8396 33.5655 50.6921C31.2383 50.0365 29.0748 48.9385 27.2228 47.4962C26.4361 46.8898 26.3542 45.7426 27.0426 45.0378C30.6154 41.383 41.0718 30.7299 46.3328 26.2884Z" fill="white"/>
</svg>
