<svg width="69" height="69" viewBox="0 0 69 69" fill="none" xmlns="http://www.w3.org/2000/svg">
<rect x="0.98336" y="0.98336" width="66.8685" height="66.8685" rx="33.4342" fill="white"/>
<rect x="0.98336" y="0.98336" width="66.8685" height="66.8685" rx="33.4342" stroke="white" stroke-width="1.96672"/>
<g clip-path="url(#clip0_331_21664)">
<path d="M52.9868 35.4827V37.1217C52.9945 37.5051 52.8676 37.8791 52.628 38.1786C52.3884 38.478 52.0514 38.684 51.6757 38.7606L49.6434 39.1703C49.2564 40.8014 48.6029 42.3574 47.7094 43.7757L48.8731 45.513C49.0709 45.8225 49.1591 46.1894 49.1234 46.555C49.0878 46.9205 48.9303 47.2635 48.6764 47.5289L46.4311 49.7742C46.1624 50.0402 45.81 50.205 45.4336 50.2409C45.0573 50.2767 44.6801 50.1813 44.366 49.9709L42.6124 48.7909C41.2044 49.7115 39.6538 50.3926 38.0233 50.8068L37.6956 52.7571C37.6189 53.1329 37.413 53.4699 37.1135 53.7094C36.814 53.949 36.44 54.076 36.0566 54.0682H32.7788C32.3953 54.076 32.0213 53.949 31.7219 53.7094C31.4224 53.4699 31.2164 53.1329 31.1398 52.7571L30.812 50.8068C29.1816 50.3926 27.631 49.7115 26.223 48.7909L24.4858 49.9545C24.1717 50.1649 23.7945 50.2603 23.4181 50.2245C23.0418 50.1886 22.6894 50.0238 22.4207 49.7579L20.159 47.5289C19.893 47.2602 19.7282 46.9078 19.6923 46.5315C19.6565 46.1551 19.7519 45.7779 19.9623 45.4638L21.1259 43.7266C20.2324 42.3082 19.579 40.7522 19.192 39.1212L17.1597 38.7114C16.784 38.6348 16.447 38.4289 16.2074 38.1294C15.9678 37.8299 15.8408 37.4559 15.8486 37.0725V35.4336H26.6C26.6 37.507 27.4236 39.4954 28.8897 40.9615C30.3558 42.4276 32.3443 43.2513 34.4177 43.2513C36.4911 43.2513 38.4795 42.4276 39.9456 40.9615C41.4117 39.4954 42.2354 37.507 42.2354 35.4336L52.9868 35.4827ZM42.891 20.9946C42.891 22.003 43.2916 22.9702 44.0046 23.6832C44.7177 24.3963 45.6849 24.7969 46.6933 24.7969C47.7017 24.7969 48.6689 24.3963 49.3819 23.6832C50.095 22.9702 50.4956 22.003 50.4956 20.9946C50.4956 19.9861 50.095 19.019 49.3819 18.3059C48.6689 17.5929 47.7017 17.1923 46.6933 17.1923C45.6849 17.1923 44.7177 17.5929 44.0046 18.3059C43.2916 19.019 42.891 19.9861 42.891 20.9946ZM18.3561 20.9946C18.3561 22.003 18.7567 22.9702 19.4698 23.6832C20.1829 24.3963 21.15 24.7969 22.1585 24.7969C23.1669 24.7969 24.134 24.3963 24.8471 23.6832C25.5602 22.9702 25.9608 22.003 25.9608 20.9946C25.9608 19.9861 25.5602 19.019 24.8471 18.3059C24.134 17.5929 23.1669 17.1923 22.1585 17.1923C21.15 17.1923 20.1829 17.5929 19.4698 18.3059C18.7567 19.019 18.3561 19.9861 18.3561 20.9946ZM25.8952 29.1729C25.3072 28.7989 24.6738 28.5015 24.0105 28.2878C22.2533 27.794 20.3807 27.911 18.6986 28.6195C17.0166 29.3281 15.6247 30.5863 14.7505 32.1885H24.1416C24.6273 31.129 25.2146 30.119 25.8952 29.1729ZM44.5463 32.2377H54.0849C53.2151 30.6261 51.8227 29.3586 50.1367 28.6437C48.4507 27.9288 46.5716 27.8091 44.8085 28.3042C44.133 28.5204 43.4885 28.8234 42.891 29.2056C43.5344 30.1635 44.0885 31.1784 44.5463 32.2377ZM42.7271 32.2377C42.0727 30.5385 40.9393 29.0657 39.4643 27.998C37.9894 26.9304 36.2363 26.3137 34.4177 26.2228C32.5841 26.3035 30.8138 26.9171 29.3235 27.9883C27.8331 29.0594 26.6873 30.5418 26.0263 32.254L42.7271 32.2377ZM29.4845 19.5195C29.4845 20.7844 29.987 21.9975 30.8814 22.8919C31.7758 23.7864 32.9889 24.2888 34.2538 24.2888C35.5187 24.2888 36.7318 23.7864 37.6262 22.8919C38.5206 21.9975 39.0231 20.7844 39.0231 19.5195C39.0231 18.2546 38.5206 17.0416 37.6262 16.1471C36.7318 15.2527 35.5187 14.7502 34.2538 14.7502C32.9889 14.7502 31.7758 15.2527 30.8814 16.1471C29.987 17.0416 29.4845 18.2546 29.4845 19.5195Z" fill="#0024FF"/>
</g>
<defs>
<clipPath id="clip0_331_21664">
<rect width="39.3344" height="39.3344" fill="white" transform="translate(14.7505 14.7502)"/>
</clipPath>
</defs>
</svg>
