<svg width="69" height="69" viewBox="0 0 69 69" fill="none" xmlns="http://www.w3.org/2000/svg">
<rect x="0.98336" y="0.98336" width="66.8685" height="66.8685" rx="33.4342" stroke="white" stroke-width="1.96672"/>
<path d="M44.3536 16.731L44.58 17.187L46.2995 21.7554C46.4336 22.113 46.7167 22.399 47.0773 22.5331L51.4877 24.1871C53.4247 24.9142 54.4647 26.9823 53.9492 28.9402L53.824 29.3276L51.7738 33.8662C51.6956 34.0395 51.6552 34.2274 51.6552 34.4175C51.6552 34.6076 51.6956 34.7956 51.7738 34.9689L53.7197 39.2571C54.1286 40.1566 54.1895 41.1758 53.8906 42.1176C53.5917 43.0593 52.9543 43.8569 52.1016 44.356L51.6456 44.5825L47.0773 46.3019C46.9 46.3692 46.739 46.4733 46.605 46.6074C46.4709 46.7415 46.3668 46.9025 46.2995 47.0797L44.6456 51.4902C44.2987 52.4162 43.6206 53.1805 42.7425 53.6352C41.8645 54.09 40.8489 54.2027 39.8925 53.9517L39.5051 53.8265L34.9665 51.7763C34.7933 51.6981 34.6053 51.6577 34.4152 51.6577C34.2251 51.6577 34.0372 51.6981 33.8639 51.7763L29.5757 53.7252C28.6759 54.1339 27.6565 54.1943 26.7147 53.8948C25.7729 53.5954 24.9755 52.9573 24.4769 52.1041L24.2504 51.6481L22.531 47.0797C22.4637 46.9025 22.3596 46.7415 22.2255 46.6074C22.0914 46.4733 21.9305 46.3692 21.7532 46.3019L17.3428 44.648C16.4168 44.3011 15.6525 43.623 15.1978 42.7449C14.7431 41.8668 14.6303 40.8513 14.8813 39.8949L15.0065 39.5075L17.0597 34.9689C17.1378 34.7956 17.1783 34.6076 17.1783 34.4175C17.1783 34.2274 17.1378 34.0395 17.0597 33.8662L15.1108 29.578C14.7019 28.6785 14.641 27.6593 14.9399 26.7175C15.2388 25.7757 15.8762 24.9782 16.7289 24.4791L17.1848 24.2526L21.7532 22.5331C21.9305 22.4659 22.0914 22.3617 22.2255 22.2277C22.3596 22.0936 22.4637 21.9326 22.531 21.7554L24.1849 17.3449C24.5318 16.4189 25.2099 15.6546 26.088 15.1999C26.966 14.7451 27.9816 14.6324 28.938 14.8834L29.3254 15.0085L33.8639 17.0618C34.0372 17.1399 34.2251 17.1804 34.4152 17.1804C34.6053 17.1804 34.7933 17.1399 34.9665 17.0618L39.2548 15.1128C40.1543 14.704 41.1734 14.6431 42.1152 14.942C43.0569 15.2408 43.8545 15.8783 44.3536 16.731ZM40.864 27.5784L31.3697 38.4346L27.9069 34.9659C27.7843 34.8377 27.6373 34.7353 27.4745 34.6647C27.3117 34.5941 27.1365 34.5568 26.9592 34.5548C26.7818 34.5529 26.6058 34.5864 26.4415 34.6533C26.2772 34.7203 26.128 34.8194 26.0026 34.9449C25.8771 35.0703 25.778 35.2196 25.711 35.3838C25.644 35.5481 25.6105 35.7241 25.6125 35.9015C25.6144 36.0789 25.6518 36.2541 25.7224 36.4168C25.793 36.5796 25.8954 36.7266 26.0235 36.8493L30.4936 41.3193C30.6226 41.448 30.7766 41.5489 30.9461 41.6156C31.1157 41.6824 31.2971 41.7137 31.4792 41.7076C31.6614 41.7014 31.8403 41.658 32.0049 41.5799C32.1696 41.5019 32.3165 41.3909 32.4365 41.2538L42.8665 29.3336C43.0789 29.0655 43.18 28.726 43.1489 28.3854C43.1179 28.0448 42.957 27.7292 42.6996 27.504C42.4422 27.2787 42.108 27.1611 41.7663 27.1755C41.4246 27.19 41.1015 27.3323 40.864 27.5784Z" fill="#0024FF"/>
</svg>
