<svg width="69" height="69" viewBox="0 0 69 69" fill="none" xmlns="http://www.w3.org/2000/svg">
<rect x="0.98336" y="0.98336" width="66.8685" height="66.8685" rx="33.4342" fill="#0024FF"/>
<rect x="0.98336" y="0.98336" width="66.8685" height="66.8685" rx="33.4342" stroke="white" stroke-width="1.96672"/>
<path d="M49.9057 37.1055V38.7444C49.9057 39.1869 49.5616 39.5475 49.1027 39.5639H46.7098C45.8412 39.5639 45.0545 38.9247 44.9889 38.0724C44.9398 37.5644 45.1364 37.0891 45.4642 36.7613C45.7592 36.4499 46.169 36.286 46.6115 36.286H49.0863C49.5616 36.3024 49.9057 36.663 49.9057 37.1055Z" fill="white"/>
<path d="M44.2351 35.5484C43.4157 36.3515 43.0223 37.5479 43.3501 38.7935C43.7762 40.3177 45.2677 41.2847 46.841 41.2847H48.2669C49.1683 41.2847 49.9058 42.0222 49.9058 42.9236V43.235C49.9058 46.6276 47.1361 49.3974 43.7435 49.3974H24.9285C21.5359 49.3974 18.7661 46.6276 18.7661 43.235V32.205C18.7661 30.1891 19.7331 28.4027 21.2245 27.2882C22.257 26.5015 23.5354 26.0426 24.9285 26.0426H43.7435C47.1361 26.0426 49.9058 28.8124 49.9058 32.205V32.9261C49.9058 33.8275 49.1683 34.5651 48.2669 34.5651H46.5952C45.6774 34.5651 44.8415 34.9256 44.2351 35.5484Z" fill="white"/>
<path d="M41.3011 22.65C41.7436 23.0925 41.3667 23.7809 40.7439 23.7809L28.1569 23.7645C27.4357 23.7645 27.0588 22.8794 27.5832 22.3714L30.2383 19.6999C32.4836 17.471 36.1221 17.471 38.3674 19.6999L41.2355 22.6008C41.2519 22.6172 41.2847 22.6336 41.3011 22.65Z" fill="white"/>
</svg>
