<svg width="69" height="69" viewBox="0 0 69 69" fill="none" xmlns="http://www.w3.org/2000/svg">
<rect x="0.98336" y="0.98336" width="66.8685" height="66.8685" rx="33.4342" fill="white"/>
<rect x="0.98336" y="0.98336" width="66.8685" height="66.8685" rx="33.4342" stroke="white" stroke-width="1.96672"/>
<path opacity="0.4" d="M43.3499 43.1039C40.5965 43.1039 38.0561 41.8092 36.4007 39.5311C36.0074 38.9902 36.1221 38.22 36.663 37.8102C37.2038 37.4005 37.9742 37.5316 38.3839 38.0725C39.5803 39.695 41.3831 40.6292 43.3499 40.6292C46.7752 40.6292 49.5778 37.843 49.5778 34.4012C49.5778 30.9595 46.7916 28.1733 43.3499 28.1733C41.0226 28.1733 38.8264 29.4189 37.6299 31.402L33.2868 38.6297C31.6479 41.3667 28.6486 43.0548 25.4691 43.0548C20.6834 43.0548 16.7827 39.1541 16.7827 34.3685C16.7827 29.5828 20.6834 25.6821 25.4691 25.6821C28.2225 25.6821 30.7628 26.9769 32.4182 29.255C32.8115 29.7958 32.6968 30.5661 32.1559 30.9759C31.5987 31.3856 30.8448 31.2545 30.4351 30.7136C29.2386 29.0911 27.4358 28.1569 25.4691 28.1569C22.0437 28.1569 19.2411 30.9431 19.2411 34.3849C19.2411 37.8266 22.0273 40.6128 25.4691 40.6128C27.7964 40.6128 29.9925 39.3672 31.189 37.3841L35.5321 30.1564C37.171 27.4194 40.1703 25.7313 43.3499 25.7313C48.1355 25.7313 52.0362 29.6319 52.0362 34.4176C52.0362 39.2033 48.1355 43.1039 43.3499 43.1039Z" fill="#0024FF"/>
<path d="M25.4034 37.6954C27.2137 37.6954 28.6812 36.2278 28.6812 34.4175C28.6812 32.6072 27.2137 31.1396 25.4034 31.1396C23.593 31.1396 22.1255 32.6072 22.1255 34.4175C22.1255 36.2278 23.593 37.6954 25.4034 37.6954Z" fill="#0024FF"/>
<path d="M43.4317 37.6954C45.242 37.6954 46.7095 36.2278 46.7095 34.4175C46.7095 32.6072 45.242 31.1396 43.4317 31.1396C41.6214 31.1396 40.1538 32.6072 40.1538 34.4175C40.1538 36.2278 41.6214 37.6954 43.4317 37.6954Z" fill="#0024FF"/>
</svg>
